<?xml version="1.0" encoding="utf-8"?>
<!-- Designed by Vexels.com - 2016 All Rights Reserved - https://vexels.com/terms-and-conditions/  -->

<svg version="1.0" id="Capa_1" xmlns="http://www.w3.org/2000/svg" xmlns:xlink="http://www.w3.org/1999/xlink" x="0px" y="0px"
	 width="1200px" height="1200px" viewBox="0 0 1200 1200" enable-background="new 0 0 1200 1200" xml:space="preserve">
<g>
	<path fill="#252233" d="M558.041,1034.899c0.879,0,1.324-0.381,1.324-1.169v-36.534c0-0.734-0.39-1.106-1.161-1.106
		c-0.544,0-0.953,0.28-1.279,0.843l-3.944,6.483c-0.409,0.535-0.626,0.997-0.626,1.387c0,0.308,0.118,0.599,0.345,0.843
		c0.227,0.236,0.508,0.363,0.816,0.363c0.426,0,0.752-0.227,0.961-0.68l2.23-3.826v32.227
		C556.707,1034.518,557.143,1034.899,558.041,1034.899z"/>
	<path fill="#252233" d="M578.96,1032.669c-2.258,0-4.18-0.598-5.731-1.804c-1.559-1.197-2.348-2.766-2.348-4.661
		c0-0.825-0.462-1.224-1.387-1.224c-0.799,0-1.206,0.435-1.206,1.315c0,2.485,0.961,4.579,2.856,6.32
		c1.922,1.733,4.507,2.612,7.753,2.612c3.255,0,5.857-0.907,7.826-2.693c1.94-1.769,2.91-4.616,2.91-8.47v-16.83
		c0-3.853-0.97-6.683-2.91-8.46c-1.969-1.786-4.57-2.683-7.826-2.683c-3.21,0-5.803,0.897-7.735,2.683
		c-1.914,1.777-2.875,4.607-2.875,8.46v1.396c0,7,3.446,10.501,10.41,10.501c3.772,0,6.547-1.252,8.26-3.763v8.696
		C586.957,1029.803,584.31,1032.669,578.96,1032.669z M578.96,1016.682c-2.62,0-4.616-0.634-5.975-1.895
		c-1.36-1.269-2.049-3.337-2.049-6.193v-1.441c0-2.848,0.689-4.988,2.085-6.402c1.369-1.414,3.319-2.112,5.876-2.112
		c2.584,0,4.579,0.698,5.975,2.112c1.406,1.414,2.086,3.554,2.086,6.402v1.913C586.957,1014.153,584.31,1016.682,578.96,1016.682z"
		/>
	<path fill="#252233" d="M598.02,1023.637v0.626c0,3.746,0.98,6.529,2.92,8.297c1.931,1.777,4.515,2.666,7.735,2.666
		c3.273,0,5.858-0.889,7.789-2.666c1.931-1.768,2.883-4.552,2.883-8.297v-0.626c0-5.06-1.85-8.369-5.558-9.91
		c3.065-1.324,4.624-4.153,4.624-8.425c0-6.129-3.237-9.212-9.738-9.212c-6.438,0-9.639,3.083-9.639,9.212
		c0,4.271,1.533,7.1,4.606,8.425C599.907,1015.268,598.02,1018.577,598.02,1023.637z M601.684,1005.456
		c0-4.615,2.331-6.919,6.991-6.919c4.706,0,7.064,2.304,7.064,6.919c0,4.697-2.358,7.028-7.064,7.028
		C604.014,1012.484,601.684,1010.153,601.684,1005.456z M608.675,1015.05c5.341,0,8.034,2.821,8.034,8.433v0.698
		c0,2.829-0.698,4.969-2.086,6.411c-1.369,1.46-3.355,2.185-5.893,2.185c-2.548,0-4.525-0.725-5.94-2.149
		c-1.414-1.442-2.122-3.582-2.122-6.448v-0.698C600.668,1017.87,603.352,1015.05,608.675,1015.05z"/>
	<path fill="#252233" d="M639.841,1014.361l-4.334,3.337l-4.362,3.292c-1.36,1.033-2.466,2.203-3.364,3.537
		c-0.898,1.315-1.369,2.674-1.369,4.062v5.141c0,0.362,0.136,0.653,0.408,0.852c0.254,0.208,0.544,0.317,0.889,0.317h18.87
		c0.254,0,0.5-0.126,0.734-0.39c0.228-0.271,0.345-0.562,0.345-0.879c0-0.362-0.118-0.653-0.327-0.898
		c-0.209-0.254-0.462-0.381-0.753-0.381h-17.509v-3.762c0-1.134,0.462-2.294,1.36-3.455c0.898-1.161,2.031-2.222,3.364-3.128
		l4.361-3.147c1.56-1.206,3.002-2.358,4.317-3.491c1.332-1.142,2.439-2.512,3.346-4.152c0.916-1.632,1.36-3.32,1.36-5.087
		c0-2.802-0.961-5.187-2.865-7.118c-1.922-1.941-4.371-2.919-7.39-2.919c-2.738,0-5.05,0.807-6.855,2.448
		c-1.831,1.623-2.747,3.655-2.747,6.094c0,1.215,0.417,1.813,1.233,1.813c0.445,0,0.816-0.109,1.061-0.344
		c0.217-0.236,0.371-0.49,0.371-0.771c0-2.159,0.608-3.809,1.878-4.969c1.251-1.151,2.911-1.722,4.96-1.722
		c2.448,0,4.334,0.771,5.694,2.276c1.343,1.532,2.013,3.292,2.013,5.322c0,1.514-0.471,2.983-1.351,4.407
		C642.279,1012.058,641.156,1013.291,639.841,1014.361z"/>
	<path fill="#252233" d="M256.231,561.537c35.074-4.261,52.62-5.503,87.694-6.882c0.635-8.768,0.925-13.166,1.541-21.925
		c-2.085-0.272-4.706-0.544-7.87-0.843c-3.156-0.299-6.42-0.635-9.739-0.989c-3.328-0.353-6.628-0.607-9.874-0.771
		c-3.238-0.145-5.758-0.253-7.508-0.408c-1.769-0.137-3.01-0.344-3.818-0.544c-0.779-0.209-1.197-0.98-1.197-2.394
		c0-11.371,0-17.092,0-28.473c4.943-0.363,7.418-0.517,12.377-0.816c24.565-1.514,43.471-7.771,56.629-19.523
		c12.414-11.089,18.689-26.178,18.689-45.493c0-9.303-1.451-17.818-4.48-25.244c-9.52-23.327-33.087-35.251-69.766-33.029
		c-26.351,1.587-39.508,2.72-65.832,6.011c0,9.584,0,14.39,0,23.962c7.173-0.154,10.754-0.19,17.918-0.209
		c0,51.832,0.009,77.747,0.009,129.578c-7.381,2.258-11.089,3.419-18.471,5.803C254.009,548.235,254.762,552.651,256.231,561.537z
		 M305.459,402.734c5.795-0.417,8.697-0.607,14.491-0.952c12.804-0.753,22.216,1.768,28.174,7.345
		c5.975,5.585,8.958,13.311,8.958,23.141c0,5.621-0.78,10.682-2.112,15.061c-4.18,13.747-20.548,21.246-49.51,23.341
		C305.459,443.503,305.459,429.901,305.459,402.734z"/>
	<path fill="#252233" d="M410.273,553.621c27.367,0.19,41.086,0.59,68.462,1.678c0-1.569,0-2.376,0-3.963
		c0.118-5.577,0.162-8.351,0.263-13.928c0-1.994,0-3.029,0-5.023c-7.789-1.568-11.688-2.321-19.478-3.845
		c0-51.187,0-76.794,0-127.982c7.998-1.015,11.997-1.505,20.003-2.439c-1.595-9.861-2.358-14.776-3.954-24.632
		c-27.366-1.052-41.067-1.423-68.461-1.56c0,9.594,0,14.382,0,23.962c7.173,0.771,10.754,1.17,17.918,2.013
		c0.018,51.613,0.018,77.42,0.018,129.043c-7.39,1.251-11.071,1.904-18.461,3.237C408.052,539.566,408.786,544.245,410.273,553.621z
		"/>
	<path fill="#252233" d="M500.851,556.26c49.61,2.358,74.428,4.216,124.028,7.282c0-22.652,0-33.968,0-56.629
		c-8.424-0.526-12.631-0.771-21.064-1.315c-1.895,11.48-2.839,17.21-4.743,28.672c-22.633-1.414-33.985-2.158-56.618-3.454
		c4.388-6.239,9.177-13.157,14.354-20.738c5.178-7.599,16.04-23.213,32.634-46.845c16.603-23.621,29.199-42.545,37.813-56.755
		c-2.095-9.929-3.164-14.866-5.278-24.796c-48.43-3.01-72.687-4.806-121.126-7.109c0,22.647,0,33.972,0,56.605
		c8.206,0.39,12.305,0.607,20.529,1.043c1.995-11.489,3.011-17.21,5.024-28.681c23.286,1.261,34.901,1.977,58.188,3.419
		c-35.501,51.096-53.264,76.613-88.747,128.281C497.84,543.656,498.828,547.845,500.851,556.26z"/>
	<path fill="#252233" d="M737.446,471.159c16.585-24.102,29.198-43.57,37.803-58.188c-2.095-9.82-3.156-14.743-5.278-24.568
		c-48.44-0.852-72.669-2.249-121.126-5.114c0,22.655-0.019,33.972-0.019,56.605c8.216,0.489,12.323,0.734,20.557,1.188
		c1.994-11.479,3.001-17.201,5.006-28.681c23.286,1.261,34.929,1.832,58.205,2.648c-35.528,52.048-53.246,77.656-88.736,128.834
		c2.013,8.442,2.992,12.659,4.987,21.109c49.618,2.92,74.428,4.371,124.037,5.169c0-22.642-0.036-33.968-0.036-56.628
		c-8.415-0.126-12.649-0.227-21.074-0.462c-1.886,11.553-2.838,17.301-4.706,28.836c-22.651-0.662-33.977-1.151-56.619-2.276
		c4.38-6.284,9.15-13.239,14.318-20.901C709.943,511.066,720.852,495.27,737.446,471.159z"/>
	<path fill="#252233" d="M876.353,568.365c27.394-1.56,41.077-2.693,68.471-6.057c1.06-8.352,1.587-12.495,2.63-20.838
		c-4.842-1.288-7.264-1.931-12.115-3.292c-21.183-60.182-31.747-90.614-52.919-151.879c-13.067,0.807-19.605,1.115-32.644,1.568
		c-20.883,63.289-31.31,94.717-52.148,157.248c-5.785,1.886-8.696,2.802-14.49,4.633c1.378,8.225,2.049,12.341,3.418,20.566
		c25.173,0.208,37.767,0.118,62.957-0.744c0-7.997,0.019-12.006,0.019-20.003c-9.268-1.36-13.937-2.085-23.205-3.627
		c3.99-13.339,6.012-20.013,10.002-33.379c20.665-0.499,30.975-0.942,51.614-2.321c3.808,12.605,5.695,18.907,9.493,31.465
		c-8.433,2.839-12.64,4.226-21.082,6.919C876.353,556.532,876.353,560.458,876.353,568.365z M844.499,484.689
		c7.164-23.93,10.726-35.908,17.899-59.911c5.558,23.44,8.387,35.128,13.955,58.524
		C863.614,484.017,857.257,484.299,844.499,484.689z"/>
	<path fill="#252233" d="M442.672,319.017c0.617-0.453,0.942-1.061,0.942-1.813v-64.684c0-1.528-1.033-2.272-3.137-2.272
		c-2.086,0-3.129,0.744-3.129,2.272v64.684c0,0.752,0.291,1.36,0.898,1.813c0.599,0.435,1.351,0.653,2.231,0.653
		C441.293,319.67,442.037,319.452,442.672,319.017z"/>
	<path fill="#252233" d="M464.135,256.032h15.95v61.171c0,0.752,0.308,1.36,0.906,1.813c0.59,0.435,1.343,0.653,2.222,0.653
		c0.825,0,1.56-0.217,2.185-0.653c0.635-0.453,0.943-1.061,0.943-1.813v-61.171h15.859c0.78,0,1.37-0.304,1.777-0.889
		c0.409-0.585,0.607-1.297,0.607-2.104c0-0.744-0.199-1.401-0.607-1.958c-0.408-0.563-0.997-0.835-1.777-0.835h-38.066
		c-0.771,0-1.342,0.291-1.777,0.88c-0.399,0.593-0.607,1.26-0.607,2.004c0,0.807,0.217,1.501,0.662,2.067
		C462.857,255.746,463.428,256.032,464.135,256.032z"/>
	<path fill="#252233" d="M512.194,317.004c0,0.771,0.371,1.397,1.151,1.904c0.753,0.508,1.587,0.761,2.485,0.761
		c1.396,0,2.221-0.535,2.485-1.604l4.388-14.636h26.252l4.361,14.626c0.381,1.07,1.17,1.614,2.384,1.614
		c0.88,0,1.733-0.253,2.566-0.771c0.816-0.508,1.233-1.124,1.233-1.85c0-0.064-0.018-0.154-0.054-0.272
		c-0.037-0.127-0.055-0.209-0.055-0.272l-19.804-64.644c-0.49-1.464-1.76-2.19-3.773-2.19c-2.004,0-3.237,0.726-3.682,2.181
		l-19.858,64.499C512.212,316.469,512.194,316.686,512.194,317.004z M535.861,259.655l11.471,38.352h-22.996L535.861,259.655z"/>
	<path fill="#252233" d="M581.327,250.247c-2.076,0-3.119,0.744-3.119,2.272v64.684c0,0.752,0.272,1.36,0.843,1.813
		c0.58,0.435,1.233,0.653,2.004,0.653h30.476c1.397,0,2.104-0.988,2.104-2.947c0-1.9-0.708-2.847-2.104-2.847h-27.057v-61.357
		C584.473,250.991,583.431,250.247,581.327,250.247z"/>
	<path fill="#252233" d="M631.671,252.519v64.684c0,0.752,0.308,1.36,0.898,1.813c0.617,0.435,1.351,0.653,2.248,0.653
		c0.816,0,1.542-0.217,2.176-0.653c0.635-0.453,0.953-1.061,0.953-1.813v-64.684c0-1.528-1.044-2.272-3.129-2.272
		C632.723,250.247,631.671,250.991,631.671,252.519z"/>
	<path fill="#252233" d="M680.273,249.671c-2.013,0-3.218,0.726-3.672,2.181l-19.849,64.499c-0.063,0.118-0.099,0.335-0.099,0.653
		c0,0.771,0.381,1.397,1.142,1.904c0.78,0.508,1.615,0.761,2.494,0.761c1.406,0,2.23-0.535,2.485-1.604l4.416-14.636h26.224
		l4.371,14.626c0.381,1.07,1.178,1.614,2.367,1.614c0.898,0,1.749-0.253,2.566-0.771c0.835-0.508,1.234-1.124,1.234-1.85
		c0-0.064-0.019-0.154-0.037-0.272c-0.018-0.127-0.036-0.209-0.036-0.272l-19.813-64.644
		C683.547,250.397,682.295,249.671,680.273,249.671z M668.803,298.007l11.544-38.352l11.461,38.352H668.803z"/>
	<path fill="#252233" d="M725.803,319.67c0.825,0,1.551-0.217,2.203-0.653c0.626-0.453,0.942-1.061,0.942-1.813v-52.529
		l26.406,51.386c1.197,2.403,2.593,3.609,4.18,3.609c0.816,0,1.551-0.217,2.185-0.653c0.626-0.453,0.934-1.061,0.934-1.813v-64.684
		c0-1.528-1.016-2.272-3.119-2.272c-2.095,0-3.138,0.744-3.138,2.272v52.625l-25.643-50.539c-1.524-2.902-3.174-4.358-4.951-4.358
		c-2.077,0-3.12,0.78-3.12,2.367v64.59c0,0.752,0.3,1.36,0.898,1.813C724.188,319.452,724.923,319.67,725.803,319.67z"/>
	<path fill="#252233" d="M527.02,149.237c6.546,0,40.088,0,72.976,0s66.439,0,72.987,0c-1.451-41.956,25.082-82.461,25.082-82.461
		c-3.274,3.133-6.339,6.007-9.204,8.7c0.063-0.385,0.09-0.775,0.09-1.175c0-3.735-3.001-6.75-6.737-6.75
		c-3.726,0-6.746,3.015-6.746,6.75c0,3.718,3.02,6.756,6.746,6.756c0.209,0,0.39-0.055,0.617-0.073
		c-38.175,34.463-37.114,21.939-36.878-9.638c0.462,0.099,0.961,0.162,1.45,0.162c3.727,0,6.747-3.028,6.747-6.755
		c0-3.735-3.02-6.751-6.747-6.751c-3.727,0-6.747,3.016-6.747,6.751c0,2.208,1.071,4.135,2.694,5.368
		c-17.238,28.038-23.495,28.419-37.069-3.246c1.587,0.92,3.41,1.474,5.386,1.474c6.039,0,10.935-4.883,10.935-10.927
		c0-5.349-3.845-9.789-8.922-10.726c2.267-8.12-8.079-16.35-13.684-20.884c-5.594,4.534-15.949,12.764-13.692,20.884
		c-5.077,0.938-8.905,5.377-8.905,10.726c0,6.044,4.888,10.927,10.918,10.927c1.977,0,3.818-0.553,5.405-1.474
		c-13.583,31.665-19.832,31.284-37.078,3.246c1.623-1.233,2.702-3.16,2.702-5.368c0-3.735-3.037-6.751-6.755-6.751
		c-3.736,0-6.747,3.016-6.747,6.751c0,3.727,3.01,6.755,6.747,6.755c0.499,0,0.979-0.063,1.45-0.162
		c0.227,31.578,1.288,44.101-36.887,9.638c0.217,0.019,0.408,0.073,0.653,0.073c3.709,0,6.728-3.038,6.728-6.756
		c0-3.735-3.02-6.75-6.728-6.75c-3.763,0-6.774,3.015-6.774,6.75c0,0.399,0.054,0.789,0.118,1.175
		c-2.875-2.694-5.94-5.567-9.222-8.7C501.93,66.776,528.453,107.281,527.02,149.237z M599.997,91.739l8.089,17.369l-8.089,17.374
		l-8.088-17.374L599.997,91.739z"/>
	<path fill="#252233" d="M672.212,165.809c0-4.801-32.345-8.691-72.216-8.691c-39.88,0-72.188,3.89-72.188,8.691
		c0,4.797,32.308,8.678,72.188,8.678C639.868,174.487,672.212,170.605,672.212,165.809z"/>
	<path fill="#252233" d="M1149.083,554.401c-2.176-17.99-39.272-40.324-43.616-57.925c-4.371-17.591,18.118-54.597,11.698-71.526
		c-6.438-16.957-47.805-29.742-56.238-45.806c-8.415-16.037,4.552-57.335-5.731-72.252c-10.283-14.93-53.536-17.442-65.542-31.007
		c-12.024-13.571-9.312-56.791-22.878-68.806c-13.547-12.014-56.148-4.125-71.064-14.413c-14.908-10.31-22.615-52.906-38.692-61.339
		c-16.05-8.428-55.459,9.435-72.388,3.002c-11.607-4.394-23.531-24.212-35.528-37.718c0.889,6.62,1.497,13.321,1.497,20.181
		c0,17.038-2.947,33.351-8.161,48.621c194.03,60.586,334.861,241.655,334.861,455.662c0,263.626-213.689,477.297-477.306,477.297
		c-263.598,0-477.315-213.671-477.315-477.297c0-214.008,140.839-395.076,334.861-455.662c-5.195-15.27-8.161-31.583-8.161-48.621
		c0-6.86,0.626-13.579,1.505-20.198c-12.005,13.506-23.929,33.342-35.509,37.736c-16.938,6.433-56.392-11.43-72.433-3.002
		c-16.058,8.433-23.766,51.029-38.683,61.339c-14.889,10.287-57.499,2.398-71.037,14.413
		c-13.565,12.015-10.863,55.236-22.877,68.806c-12.025,13.565-55.259,16.077-65.569,31.007
		c-10.283,14.917,2.703,56.215-5.712,72.252c-8.451,16.064-49.808,28.849-56.238,45.806c-6.438,16.929,16.031,53.926,11.706,71.526
		s-41.476,39.934-43.616,57.925c-2.185,18,28.5,48.548,28.5,66.675c0,18.117-30.685,48.675-28.5,66.665
		c2.14,17.982,39.291,40.324,43.616,57.925c4.325,17.61-18.144,54.597-11.706,71.554c6.429,16.938,47.787,29.724,56.238,45.774
		c8.415,16.059-4.57,57.381,5.712,72.287c10.31,14.925,53.545,17.419,65.569,30.994c12.014,13.574,9.312,56.8,22.877,68.806
		c13.538,12.014,56.148,4.125,71.037,14.417c14.917,10.311,22.625,52.901,38.683,61.334c16.041,8.433,55.495-9.439,72.433-3.002
		c16.948,6.448,34.639,45.947,52.239,50.289c17.6,4.334,51.65-22.442,69.621-20.257c18.018,2.177,44.623,36.325,62.758,36.325
		c18.127,0,44.75-34.149,62.749-36.325c17.972-2.185,52.03,24.591,69.622,20.257c17.61-4.343,35.282-43.842,52.266-50.289
		c16.929-6.438,56.338,11.435,72.388,3.002c16.077-8.433,23.784-51.024,38.692-61.334c14.916-10.292,57.516-2.403,71.064-14.417
		c13.566-12.006,10.855-55.232,22.878-68.806c12.006-13.574,55.259-16.068,65.542-30.994c10.283-14.907-2.684-56.228,5.731-72.287
		c8.433-16.05,49.799-28.836,56.238-45.774c6.42-16.957-16.068-53.962-11.698-71.554c4.344-17.6,41.44-39.943,43.616-57.925
		c2.158-17.99-28.509-48.548-28.509-66.665C1120.575,602.949,1151.241,572.401,1149.083,554.401z"/>
	<path fill="#252233" d="M499.808,990.83c0,0-14.019,16.649-13.321,34.367c-8.751-8.361-21.817-19.395-38.184-29.388
		c2.041-6.22-1.604-13.765-8.913-17.555c-7.971-4.108-17.111-2.222-20.484,4.253c-3.337,6.483,0.381,15.052,8.342,19.159
		c7.055,3.682,15.062,2.549,19.088-2.267c11.117,6.774,20.647,14.027,28.292,20.584c-6.865-0.97-14.617-0.943-20.203-0.698
		c-2.095-3.672-6.42-6.456-11.679-6.945c-7.826-0.734-14.599,3.853-15.197,10.192c-0.59,6.357,5.268,12.115,13.048,12.813
		c7.808,0.744,14.626-3.826,15.216-10.174c0.046-0.635,0-1.233-0.036-1.841c7.508-0.253,18.39-0.136,25.072,2.186
		c9.594,8.832,15.007,15.315,15.107,15.469l3.164-2.584c-0.082-0.136-4.561-5.531-12.596-13.176
		C505.321,1013.744,499.808,990.83,499.808,990.83z"/>
	<path fill="#252233" d="M483.323,1022.059c3.809-14.771-10.817-29.098-10.817-29.098S468.561,1008.077,483.323,1022.059z"/>
	<path fill="#252233" d="M772.755,1001.666c7.961-4.107,11.679-12.676,8.342-19.159c-3.372-6.475-12.513-8.361-20.483-4.253
		c-7.308,3.79-10.945,11.335-8.905,17.555c-16.377,9.993-29.443,21.028-38.184,29.388c0.689-17.718-13.329-34.367-13.329-34.367
		s-5.504,22.914,13.293,34.394c-8.043,7.645-12.514,13.039-12.596,13.176l3.156,2.584c0.099-0.154,5.522-6.637,15.116-15.469
		c6.683-2.321,17.564-2.439,25.082-2.186c-0.055,0.608-0.091,1.206-0.055,1.841c0.59,6.348,7.418,10.918,15.207,10.174
		c7.789-0.698,13.648-6.456,13.067-12.813c-0.608-6.338-7.373-10.926-15.207-10.192c-5.259,0.489-9.585,3.273-11.688,6.945
		c-5.568-0.245-13.33-0.272-20.194,0.698c7.662-6.556,17.183-13.81,28.291-20.584C757.703,1004.215,765.7,1005.347,772.755,1001.666
		z"/>
	<path fill="#252233" d="M716.689,1022.059c14.753-13.982,10.8-29.098,10.8-29.098S712.881,1007.288,716.689,1022.059z"/>
	<path fill="#252233" d="M532.379,868.171c-0.826-1.451-4.869-0.299-6.175,0.544c-1.959,1.214-4.679,4.034-3.773,5.259
		c0.898,1.233,4.489,1.913,6.674,0.099C531.281,872.243,533.204,869.631,532.379,868.171z"/>
	<path fill="#252233" d="M606.462,835.881c0.734-1.124,0.173-2.575-0.952-3.3c-1.107-0.744-2.62-0.417-3.355,0.707
		c-0.717,1.098-0.308,3.12,0.807,3.845C604.087,837.849,605.728,837.005,606.462,835.881z"/>
	<path fill="#252233" d="M617.353,843.779c1.713,0.544,3.41-0.698,3.962-2.403c0.553-1.713-0.398-3.572-2.112-4.116
		c-1.722-0.553-4.125,0.698-4.688,2.411C613.943,841.404,615.666,843.235,617.353,843.779z"/>
	<path fill="#252233" d="M628.153,858.85c-1.116,0.798-1.442,2.801-0.671,3.899c0.789,1.088,2.657,0.907,3.735,0.099
		c1.08-0.752,1.098-2.312,0.327-3.4C630.737,858.342,629.232,858.087,628.153,858.85z"/>
	<path fill="#252233" d="M608.239,855.431c-1.777,0.209-3.073,1.823-2.883,3.627c0.208,1.777,2.348,3.501,4.135,3.283
		c1.796-0.163,2.793-2.485,2.566-4.281C611.848,856.274,610.035,855.241,608.239,855.431z"/>
	<path fill="#252233" d="M534.247,871.817c-1.134,0.698-2.177,1.831-1.868,2.566c0.272,0.744,2.23,0.454,2.911,0.136
		c1.007-0.445,2.466-1.596,2.131-2.249C537.049,871.617,535.399,871.1,534.247,871.817z"/>
	<path fill="#252233" d="M627.036,679.544l-19.277-33.396c-106.456,63.32-165.26,173.637-163.663,289.595l38.701,0.399
		C482.207,834.412,533.975,735.175,627.036,679.544z"/>
	<path fill="#252233" d="M696.16,881.483l-2.856-1.587l2.838-1.986c0.97-0.698,9.403-6.791,8.841-13.375
		c-0.363-4.108-4.171-7.889-11.344-11.271c-6.62-3.128-11.679-3.545-14.998-1.214c-6.638,4.679-5.124,18.843-5.124,18.969
		l0.399,3.619l-3.238-1.623c-2.874-1.478-11.407-4.534-16.258-1.124c-3.373,2.358-4.761,7.554-4.126,15.442
		c0.635,7.317,2.793,11.86,6.456,13.592c6.865,3.192,17.456-3.935,19.006-5.023c0.036-0.018,0.036-0.018,0.036-0.018l2.892-2.14
		l0.191,3.591c0,0.127,0.734,11.507,7.073,14.609c3.762,1.84,8.985,0.462,15.542-4.126l1.224,1.505l-1.106-1.578
		c5.976-4.207,8.832-8.37,8.414-12.404C709.227,887.295,696.305,881.564,696.16,881.483z"/>
	<path fill="#252233" d="M616.99,864.48c-1.541,0.934-2.185,3.573-1.288,5.133c0.898,1.513,3.41,1.469,4.969,0.526
		c1.532-0.898,1.722-2.993,0.789-4.552C620.536,864.063,618.54,863.538,616.99,864.48z"/>
	<path fill="#252233" d="M658.003,809.685c2.439-1.424,3.292-4.543,1.859-6.983c-1.397-2.457-4.534-3.282-6.973-1.868
		c-2.439,1.406-3.282,4.534-1.877,6.964C652.426,810.256,655.546,811.099,658.003,809.685z"/>
	<path fill="#252233" d="M557.198,797.515c-2.439,1.415-3.301,4.561-1.878,6.991c1.423,2.422,4.543,3.265,6.973,1.868
		c2.449-1.414,3.282-4.542,1.877-6.991C562.765,796.944,559.637,796.11,557.198,797.515z"/>
	<path fill="#252233" d="M517.336,874.954c-0.689,0.843-1.423,2.548-0.834,2.956c0.617,0.417,2.33,0.136,3.001-1.024
		c0.68-1.17,1.115-2.639,0.517-3.165C519.421,873.204,517.817,874.365,517.336,874.954z"/>
	<path fill="#252233" d="M629.957,684.613c-91.094,54.461-141.765,151.576-141.293,251.13h286.295L629.957,684.613z
		 M553.634,886.461c-3.255,0.445-11.009-0.145-11.009-0.145s10.056,15.723,13.076,20.175c2.983,4.452,1.007,6.103-0.48,7.336
		c-1.478,1.197-5.242,2.566-7.907,3.99c-2.666,1.433-5.876-1.061-6.846-3.727c-0.952-2.656-8.606-21.799-8.606-21.799
		s-2.592,4.462-5.15,8.234c-3.156,4.679-10.428,4.071-13.692-1.396c-3.283-5.468-2.766-18.417,1.704-24.202
		c4.444-5.794,16.676-13.32,26.179-12.377c8.406,0.843,16.004,8.361,18.716,14.128C562.348,882.417,556.889,886.025,553.634,886.461
		z M564.769,810.273c-4.706,2.711-10.727,1.116-13.447-3.564c-2.711-4.715-1.071-10.745,3.627-13.466
		c4.688-2.71,10.682-1.087,13.411,3.609C571.09,801.542,569.448,807.562,564.769,810.273z M609.364,892.636
		c-18.742,2.774-36.198-10.147-38.991-28.908c-2.774-18.743,10.174-36.199,28.917-38.973c18.752-2.784,36.198,10.147,38.964,28.908
		C641.038,872.424,628.098,889.852,609.364,892.636z M617.724,760.039c3.6,3.726,8.905,11.715,2.068,22.134
		c-5.341-4.054-7.236-8.623-7.617-12.74c-1.098,0.988-2.557,1.813-4.471,2.394c-0.626-2.557-0.489-4.724,0.055-6.519
		c-12.695,8.578-26.342,0.154-26.342,0.154s11.997-18.308,30.893-8.778c-9.919-10.128-2.059-22.161-2.059-22.161
		s11.725,8.116,6.802,20.521c4.814-5.105,15.85-13.248,30.794-3.971C637.402,765.488,623.918,762.505,617.724,760.039z
		 M650.531,796.745c4.707-2.721,10.727-1.106,13.429,3.6c2.721,4.688,1.098,10.718-3.609,13.42
		c-4.697,2.711-10.736,1.115-13.438-3.591C644.212,805.477,645.835,799.429,650.531,796.745z M703.84,910.943l-0.136,0.072
		c-7.789,5.423-14.354,6.919-19.459,4.435c-5.958-2.884-8.079-10.347-8.842-14.662c-4.443,2.647-13.348,6.919-20.284,3.672
		c-5.042-2.367-7.962-8.007-8.66-16.803c-0.798-9.358,1.107-15.759,5.723-18.961c5.477-3.844,13.103-1.977,17.273-0.453
		c-0.091-5.124,0.643-14.953,6.964-19.368c4.534-3.183,10.863-2.893,18.906,0.861c8.497,3.999,13.049,8.851,13.557,14.481
		c0.553,6.629-4.734,12.206-8.27,15.17c4.452,2.457,12.541,7.971,13.293,15.56C714.459,900.47,711.086,905.866,703.84,910.943z"/>
	<path fill="#252233" d="M537.176,865.641c-1.478,0.961-2.865,2.412-2.457,3.346c0.381,0.952,2.919,0.571,3.799,0.172
		c1.297-0.571,3.156-2.085,2.739-2.892C540.803,865.433,538.654,864.707,537.176,865.641z"/>
	<path fill="#252233" d="M614.823,876.205c-1.224,1.098-1.332,3.537-0.244,4.761c1.087,1.197,3.246,0.681,4.479-0.399
		c1.161-1.07,0.97-2.946-0.1-4.152C617.833,875.208,615.992,875.126,614.823,876.205z"/>
	<path fill="#252233" d="M594.411,849.265c-2.195,1.315-3.128,5.06-1.813,7.263c1.306,2.167,4.824,2.103,7.036,0.752
		c2.158-1.287,2.421-4.234,1.124-6.438C599.453,848.657,596.606,847.932,594.411,849.265z"/>
	<path fill="#252233" d="M600.333,860.926c-1.115-0.744-2.639-0.426-3.346,0.708c-0.752,1.124-0.335,3.128,0.799,3.853
		c1.142,0.734,2.784-0.126,3.509-1.251C602.001,863.102,601.448,861.66,600.333,860.926z"/>
	<path fill="#252233" d="M585.199,850.389c1.777,0.136,3.138-1.469,3.309-3.246c0.118-1.813-1.197-3.364-3.028-3.518
		c-1.777-0.136-3.854,1.623-3.999,3.419C581.327,848.83,583.403,850.235,585.199,850.389z"/>
	<path fill="#252233" d="M605.102,842.382c-1.496,0.962-2.122,3.645-1.178,5.16c0.97,1.551,3.455,1.414,5.006,0.462
		c1.505-0.961,1.641-3.047,0.67-4.57C608.657,841.893,606.625,841.43,605.102,842.382z"/>
	<path fill="#252233" d="M596.243,841.929c1.578-0.889,2.14-2.875,1.288-4.443c-0.862-1.587-3.509-2.321-5.086-1.469
		c-1.551,0.862-1.587,3.364-0.717,4.932C592.598,842.536,594.674,842.781,596.243,841.929z"/>
	<path fill="#252233" d="M618.413,849.093c-2.539,0.327-3.835,3.591-3.49,6.121c0.335,2.548,2.91,3.954,5.45,3.608
		c2.521-0.335,4.325-2.666,3.99-5.186C624.026,851.106,620.953,848.748,618.413,849.093z"/>
	<path fill="#252233" d="M585.851,866.956c-2.194,1.306-3.128,5.06-1.813,7.245c1.342,2.194,4.842,2.112,7.036,0.798
		c2.194-1.323,2.457-4.261,1.124-6.456C590.893,866.349,588.045,865.632,585.851,866.956z"/>
	<path fill="#252233" d="M579.713,863.728c-1.115-0.708-2.648-0.399-3.356,0.734c-0.734,1.106-0.308,3.119,0.799,3.853
		c1.133,0.717,2.784-0.136,3.528-1.26C581.399,865.932,580.837,864.48,579.713,863.728z"/>
	<path fill="#252233" d="M594.937,877.828c-1.532,0.934-2.213,3.582-1.288,5.124c0.926,1.551,3.419,1.496,4.969,0.553
		c1.56-0.916,1.714-2.983,0.807-4.553C598.474,877.402,596.478,876.913,594.937,877.828z"/>
	<path fill="#252233" d="M604.458,867.745c-2.185,1.296-3.155,5.069-1.813,7.272c1.296,2.185,4.842,2.076,7.027,0.761
		c2.176-1.288,2.43-4.262,1.134-6.447C609.491,867.165,606.635,866.412,604.458,867.745z"/>
	<path fill="#252233" d="M586.976,861.706c1.541-0.916,1.722-3.02,0.798-4.552c-0.925-1.578-2.929-2.059-4.461-1.143
		c-1.569,0.943-2.203,3.591-1.297,5.132C582.931,862.694,585.434,862.64,586.976,861.706z"/>
	<path fill="#252233" d="M580.147,853.663c0.762-1.151,0.191-2.603-0.943-3.319c-1.097-0.734-2.62-0.426-3.355,0.716
		c-0.744,1.098-0.318,3.092,0.815,3.836C577.799,855.621,579.441,854.769,580.147,853.663z"/>
	<path fill="#252233" d="M279.698,689.22c-2.203-1.813-5.794-1.133-6.683,0.109c-0.916,1.234,1.796,4.045,3.763,5.259
		c1.315,0.844,5.322,1.995,6.165,0.544C283.77,693.681,281.874,691.061,279.698,689.22z"/>
	<path fill="#252233" d="M356.075,730.714c1.143-0.717,1.705-2.167,0.97-3.301c-0.744-1.124-2.384-1.968-3.509-1.242
		c-1.107,0.725-1.533,2.748-0.816,3.845C353.464,731.14,354.951,731.458,356.075,730.714z"/>
	<path fill="#252233" d="M367.918,719.533c-1.705,0.544-3.41,2.375-2.829,4.089c0.544,1.722,2.956,2.965,4.679,2.421
		c1.714-0.543,2.666-2.402,2.104-4.099C371.337,720.222,369.659,718.989,367.918,719.533z"/>
	<path fill="#252233" d="M382.118,703.855c0.761-1.088,0.752-2.639-0.327-3.41c-1.087-0.807-2.956-0.98-3.726,0.109
		c-0.789,1.098-0.445,3.101,0.68,3.899C379.814,705.225,381.329,704.961,382.118,703.855z"/>
	<path fill="#252233" d="M360.056,700.963c-1.759-0.218-3.917,1.496-4.125,3.273c-0.173,1.796,1.115,3.428,2.911,3.627
		c1.749,0.2,3.591-0.843,3.781-2.62C362.84,703.448,361.861,701.126,360.056,700.963z"/>
	<path fill="#252233" d="M287.959,691.025c0.362-0.644-1.098-1.805-2.095-2.249c-0.671-0.3-2.657-0.58-2.929,0.136
		c-0.3,0.744,0.752,1.868,1.886,2.566C285.964,692.212,287.623,691.668,287.959,691.025z"/>
	<path fill="#252233" d="M233.362,627.152l-38.711,0.408c-1.578,115.958,57.226,226.285,163.673,289.596l19.296-33.397
		C284.54,828.119,232.755,728.882,233.362,627.152z"/>
	<path fill="#252233" d="M421.263,690.29l3.219-1.615l-0.39,3.6c0,0.136-1.532,14.3,5.141,18.979
		c3.292,2.33,8.351,1.913,14.98-1.215c7.181-3.373,10.972-7.172,11.344-11.28c0.571-6.574-7.88-12.668-8.859-13.376l-2.839-1.977
		l2.875-1.578c0.145-0.082,13.057-5.821,13.883-13.856c0.381-4.044-2.466-8.224-8.415-12.414l1.088-1.578l-1.224,1.496
		c-6.565-4.579-11.77-5.948-15.533-4.116c-6.338,3.101-7.081,14.49-7.081,14.598l-0.2,3.592l-2.893-2.123c0,0-0.008,0-0.045-0.018
		c-1.542-1.098-12.133-8.225-18.989-5.033c-3.672,1.722-5.812,6.293-6.447,13.593c-0.653,7.889,0.725,13.103,4.125,15.433
		C409.847,694.815,418.388,691.759,421.263,690.29z"/>
	<path fill="#252233" d="M366.286,693.69c-0.925,1.559-0.272,4.207,1.279,5.123c1.533,0.943,3.545,0.426,4.471-1.106
		c0.925-1.541,0.761-3.627-0.799-4.543C369.695,692.23,367.183,692.149,366.286,693.69z"/>
	<path fill="#252233" d="M403.454,762.469c2.449,1.414,5.586,0.58,6.983-1.859c1.423-2.439,0.59-5.568-1.877-6.983
		c-2.431-1.414-5.568-0.58-6.983,1.859C400.163,757.935,400.997,761.072,403.454,762.469z"/>
	<path fill="#252233" d="M312.877,756.938c-2.458-1.415-5.568-0.58-6.992,1.859c-1.423,2.43-0.544,5.586,1.878,6.982
		c2.466,1.415,5.577,0.59,7-1.867C316.169,761.472,315.316,758.343,312.877,756.938z"/>
	<path fill="#252233" d="M267.075,685.393c-0.589,0.409,0.146,2.095,0.844,2.956c0.453,0.58,2.085,1.741,2.675,1.224
		c0.598-0.499,0.154-1.986-0.536-3.164C269.406,685.248,267.701,684.976,267.075,685.393z"/>
	<path fill="#252233" d="M525.524,627.559H239.219c-0.453,99.555,50.209,196.678,141.321,251.112L525.524,627.559z M397.007,675.655
		c0.734-8.805,3.655-14.454,8.66-16.803c6.956-3.264,15.859,1.025,20.303,3.663c0.761-4.316,2.91-11.769,8.841-14.662
		c5.105-2.484,11.67-0.997,19.478,4.425l0.118,0.091c7.263,5.069,10.645,10.464,10.083,15.995
		c-0.761,7.59-8.842,13.085-13.311,15.56c3.527,2.947,8.85,8.524,8.27,15.161c-0.489,5.613-5.06,10.482-13.547,14.491
		c-8.024,3.754-14.381,4.044-18.915,0.87c-6.302-4.424-7.036-14.263-6.936-19.387c-4.199,1.524-11.825,3.383-17.292-0.453
		C398.141,691.405,396.218,685.003,397.007,675.655z M397.488,753.138c2.693-4.706,8.741-6.311,13.447-3.6
		c4.688,2.694,6.302,8.732,3.609,13.42c-2.721,4.715-8.76,6.321-13.439,3.6C396.4,763.847,394.794,757.826,397.488,753.138z
		 M265.281,688.367c-4.471-5.785-4.978-18.716-1.696-24.184c3.3-5.486,10.536-6.084,13.71-1.397c2.54,3.773,5.141,8.216,5.141,8.216
		s7.672-19.132,8.606-21.798c0.98-2.657,4.171-5.151,6.837-3.718c2.694,1.423,6.42,2.792,7.907,3.998
		c1.487,1.215,3.491,2.875,0.489,7.327c-3.02,4.462-13.085,20.184-13.085,20.184s7.753-0.607,11.026-0.154
		c3.247,0.445,8.678,4.035,5.976,9.784c-2.702,5.776-10.301,13.294-18.716,14.137C281.965,701.697,269.742,694.171,265.281,688.367z
		 M318.934,766.468c-2.711,4.679-8.723,6.293-13.42,3.591c-4.697-2.702-6.321-8.769-3.609-13.466
		c2.702-4.679,8.741-6.284,13.429-3.564C320.032,755.722,321.645,761.761,318.934,766.468z M320.947,699.584
		c2.784-18.769,20.239-31.709,38.982-28.926c18.743,2.784,31.701,20.212,28.917,38.982c-2.802,18.762-20.239,31.692-38.982,28.917
		C331.13,735.773,318.163,718.309,320.947,699.584z M360.836,828.772c0,0-7.862-12.024,2.059-22.161
		c-18.915,9.531-30.912-8.768-30.912-8.768s13.656-8.425,26.342,0.145c-0.544-1.786-0.671-3.963-0.046-6.52
		c1.922,0.59,3.391,1.415,4.489,2.395c0.344-4.09,2.258-8.678,7.59-12.731c6.846,10.41,1.532,18.407-2.085,22.143
		c6.23-2.475,19.722-5.459,30.15,8.959c-14.944,9.285-25.97,1.124-30.812-3.972C372.561,820.675,360.836,828.772,360.836,828.772z"
		/>
	<path fill="#252233" d="M289.084,694.144c-0.88-0.399-3.41-0.789-3.79,0.173c-0.399,0.943,0.961,2.385,2.448,3.346
		c1.497,0.934,3.628,0.209,4.09-0.626C292.257,696.22,290.38,694.715,289.084,694.144z"/>
	<path fill="#252233" d="M369.522,686.889c1.08-1.205,1.279-3.073,0.1-4.152c-1.224-1.079-3.41-1.578-4.479-0.39
		c-1.098,1.215-0.97,3.654,0.236,4.751C366.558,688.195,368.426,688.087,369.522,686.889z"/>
	<path fill="#252233" d="M350.181,706.013c-2.176-1.332-5.712-1.405-7.018,0.761c-1.306,2.195-0.372,5.958,1.813,7.273
		c2.194,1.305,5.05,0.598,6.357-1.605C352.648,710.266,352.367,707.301,350.181,706.013z"/>
	<path fill="#252233" d="M348.377,697.835c-1.151,0.707-1.568,2.702-0.825,3.826c0.698,1.151,2.24,1.45,3.373,0.707
		c1.115-0.743,1.678-2.167,0.925-3.3C351.134,697.934,349.501,697.091,348.377,697.835z"/>
	<path fill="#252233" d="M335.764,712.914c-1.786,0.145-3.863,1.568-3.718,3.337c0.173,1.813,2.222,3.572,4.026,3.418
		c1.786-0.136,3.156-1.705,3.002-3.509C338.937,714.392,337.55,712.769,335.764,712.914z"/>
	<path fill="#252233" d="M354.507,715.77c-0.97,1.505-0.344,4.171,1.178,5.151c1.514,0.952,3.537,0.48,4.489-1.043
		c0.961-1.551,0.835-3.627-0.689-4.58C357.953,714.337,355.468,714.202,354.507,715.77z"/>
	<path fill="#252233" d="M346.809,721.383c-1.569-0.879-3.645-0.617-4.507,0.97c-0.862,1.56-0.843,4.062,0.717,4.924
		c1.568,0.87,4.225,0.126,5.077-1.461C348.957,724.239,348.396,722.262,346.809,721.383z"/>
	<path fill="#252233" d="M365.497,708.081c-0.354,2.529,0.942,5.794,3.482,6.121c2.539,0.344,5.631-2.013,5.939-4.543
		c0.344-2.521-1.433-4.824-3.971-5.168C368.417,704.136,365.832,705.541,365.497,708.081z"/>
	<path fill="#252233" d="M341.658,688.295c-2.213-1.296-5.713-1.396-7.036,0.799c-1.333,2.203-0.382,5.93,1.813,7.263
		c2.194,1.305,5.023,0.607,6.338-1.596C344.088,692.566,343.852,689.619,341.658,688.295z"/>
	<path fill="#252233" d="M327.73,694.977c-1.115,0.753-1.541,2.748-0.807,3.864c0.725,1.124,2.248,1.441,3.355,0.734
		c1.134-0.744,1.686-2.195,0.97-3.328C330.514,695.123,328.863,694.279,327.73,694.977z"/>
	<path fill="#252233" d="M349.991,684.341c0.934-1.551,0.753-3.627-0.798-4.552c-1.551-0.925-4.035-0.988-4.96,0.544
		c-0.916,1.56-0.253,4.198,1.279,5.124C347.053,686.39,349.057,685.901,349.991,684.341z"/>
	<path fill="#252233" d="M355.033,695.567c2.186,1.306,5.023,0.58,6.357-1.596c1.287-2.185,1.043-5.15-1.152-6.464
		c-2.185-1.306-5.703-1.397-7.018,0.788C351.868,690.489,352.848,694.262,355.033,695.567z"/>
	<path fill="#252233" d="M333.887,707.282c1.513,0.934,3.527,0.435,4.443-1.124c0.942-1.541,0.752-3.654-0.78-4.552
		c-1.551-0.943-4.035-0.997-4.97,0.553C331.656,703.692,332.3,706.349,333.887,707.282z"/>
	<path fill="#252233" d="M327.24,708.398c-1.142,0.743-1.551,2.748-0.834,3.835c0.752,1.152,2.267,1.469,3.355,0.726
		c1.143-0.726,1.705-2.176,0.98-3.32C330.015,708.534,328.364,707.672,327.24,708.398z"/>
	<path fill="#252233" d="M917.086,695.132c0.834,1.451,4.841,0.3,6.192-0.544c1.932-1.215,4.661-4.025,3.754-5.259
		c-0.906-1.241-4.497-1.922-6.692-0.109C918.174,691.061,916.252,693.681,917.086,695.132z"/>
	<path fill="#252233" d="M842.994,727.413c-0.744,1.134-0.182,2.584,0.942,3.301c1.134,0.744,2.63,0.426,3.364-0.698
		c0.734-1.098,0.291-3.12-0.807-3.845C845.369,725.445,843.746,726.289,842.994,727.413z"/>
	<path fill="#252233" d="M832.113,719.533c-1.695-0.544-3.41,0.689-3.971,2.411c-0.553,1.696,0.389,3.555,2.13,4.099
		c1.705,0.544,4.126-0.698,4.688-2.421C835.504,721.909,833.817,720.078,832.113,719.533z"/>
	<path fill="#252233" d="M821.303,704.453c1.115-0.798,1.46-2.801,0.671-3.899c-0.771-1.088-2.639-0.916-3.736-0.109
		c-1.07,0.771-1.087,2.321-0.326,3.41C818.719,704.961,820.215,705.225,821.303,704.453z"/>
	<path fill="#252233" d="M841.225,707.863c1.769-0.199,3.056-1.831,2.865-3.627c-0.2-1.777-2.348-3.491-4.108-3.273
		c-1.822,0.163-2.792,2.485-2.593,4.28C837.598,707.02,839.43,708.062,841.225,707.863z"/>
	<path fill="#252233" d="M915.2,691.478c1.152-0.698,2.203-1.823,1.887-2.566c-0.272-0.716-2.241-0.435-2.93-0.136
		c-0.997,0.444-2.448,1.604-2.086,2.249C912.407,691.668,914.057,692.212,915.2,691.478z"/>
	<path fill="#252233" d="M841.706,917.155c106.437-63.311,165.268-173.638,163.654-289.596l-38.683-0.408
		c0.589,101.73-51.178,200.967-144.25,256.607L841.706,917.155z"/>
	<path fill="#252233" d="M753.305,681.829l2.856,1.578l-2.847,1.977c-0.953,0.708-9.395,6.802-8.823,13.376
		c0.353,4.108,4.152,7.906,11.335,11.28c6.62,3.128,11.679,3.545,14.971,1.215c6.664-4.679,5.168-18.843,5.168-18.979l-0.417-3.6
		l3.21,1.615c2.883,1.469,11.416,4.525,16.276,1.115c3.4-2.331,4.751-7.544,4.135-15.433c-0.643-7.3-2.801-11.87-6.474-13.593
		c-6.828-3.192-17.446,3.935-18.979,5.033c-0.045,0.018-0.045,0.018-0.045,0.018l-2.892,2.123l-0.217-3.592
		c0-0.109-0.708-11.497-7.073-14.598c-3.736-1.832-8.95-0.462-15.507,4.116l-1.251-1.496l1.115,1.578
		c-5.984,4.19-8.805,8.37-8.415,12.414C740.229,676.008,753.16,681.748,753.305,681.829z"/>
	<path fill="#252233" d="M832.466,698.813c1.559-0.916,2.203-3.564,1.279-5.123c-0.898-1.541-3.4-1.461-4.969-0.526
		c-1.532,0.916-1.686,3.002-0.78,4.543C828.92,699.239,830.925,699.757,832.466,698.813z"/>
	<path fill="#252233" d="M791.471,753.627c-2.457,1.415-3.309,4.543-1.886,6.983c1.406,2.439,4.543,3.273,6.983,1.859
		c2.457-1.397,3.292-4.534,1.877-6.983C797.047,753.047,793.91,752.213,791.471,753.627z"/>
	<path fill="#252233" d="M892.268,765.778c2.421-1.396,3.292-4.552,1.868-6.982c-1.423-2.439-4.534-3.274-6.983-1.859
		c-2.449,1.406-3.282,4.534-1.85,6.973C886.691,766.368,889.819,767.193,892.268,765.778z"/>
	<path fill="#252233" d="M932.12,688.35c0.689-0.862,1.423-2.548,0.852-2.956c-0.626-0.417-2.348-0.145-3.02,1.016
		c-0.689,1.178-1.106,2.666-0.517,3.164C930.016,690.091,931.639,688.93,932.12,688.35z"/>
	<path fill="#252233" d="M819.509,878.671c91.085-54.433,141.756-151.557,141.311-251.112H674.498L819.509,878.671z
		 M895.822,676.842c3.265-0.453,10.999,0.154,10.999,0.154s-10.047-15.723-13.058-20.184c-3.001-4.452-1.015-6.112,0.462-7.327
		c1.505-1.206,5.251-2.575,7.926-3.998c2.657-1.433,5.857,1.06,6.837,3.718c0.942,2.666,8.614,21.798,8.614,21.798
		s2.584-4.443,5.124-8.216c3.155-4.687,10.446-4.089,13.719,1.397c3.282,5.468,2.774,18.399-1.686,24.184
		c-4.489,5.803-16.703,13.33-26.197,12.396c-8.415-0.843-16.004-8.361-18.734-14.137
		C887.126,680.878,892.585,677.287,895.822,676.842z M884.687,753.029c4.697-2.721,10.736-1.115,13.447,3.564
		c2.694,4.697,1.071,10.764-3.6,13.466c-4.706,2.702-10.736,1.088-13.438-3.591C878.367,761.761,880.008,755.722,884.687,753.029z
		 M840.092,670.658c18.752-2.784,36.198,10.156,39,28.926c2.784,18.725-10.183,36.19-28.936,38.973
		c-18.725,2.774-36.179-10.155-38.955-28.917C808.41,690.871,821.368,673.442,840.092,670.658z M831.74,803.273
		c-3.599-3.735-8.913-11.733-2.076-22.143c5.341,4.053,7.236,8.641,7.617,12.731c1.071-0.98,2.548-1.805,4.462-2.395
		c0.635,2.557,0.508,4.734-0.036,6.52c12.686-8.569,26.351-0.145,26.351-0.145s-11.997,18.299-30.921,8.768
		c9.929,10.138,2.068,22.161,2.068,22.161s-11.716-8.097-6.783-20.511c-4.842,5.097-15.85,13.258-30.812,3.972
		C812.054,797.814,825.52,800.798,831.74,803.273z M798.916,766.558c-4.67,2.721-10.727,1.115-13.411-3.6
		c-2.721-4.688-1.107-10.726,3.599-13.42c4.697-2.711,10.737-1.106,13.439,3.6C805.244,757.826,803.612,763.847,798.916,766.558z
		 M745.616,652.369l0.136-0.091c7.789-5.423,14.354-6.909,19.478-4.425c5.93,2.893,8.051,10.347,8.85,14.662
		c4.407-2.638,13.329-6.927,20.266-3.663c5.033,2.348,7.952,7.997,8.659,16.803c0.799,9.349-1.124,15.751-5.722,18.951
		c-5.477,3.836-13.103,1.977-17.283,0.453c0.099,5.124-0.644,14.962-6.973,19.387c-4.525,3.174-10.872,2.884-18.879-0.87
		c-8.524-4.008-13.085-8.878-13.584-14.491c-0.544-6.637,4.761-12.214,8.297-15.161c-4.48-2.475-12.559-7.971-13.33-15.56
		C734.988,662.833,738.361,657.438,745.616,652.369z"/>
	<path fill="#252233" d="M912.298,697.662c1.461-0.961,2.829-2.403,2.449-3.346c-0.381-0.962-2.929-0.572-3.817-0.173
		c-1.288,0.571-3.156,2.076-2.73,2.892C908.68,697.871,910.802,698.596,912.298,697.662z"/>
	<path fill="#252233" d="M834.651,687.098c1.206-1.098,1.333-3.537,0.245-4.751c-1.079-1.188-3.265-0.689-4.471,0.39
		c-1.197,1.079-0.988,2.947,0.082,4.152C831.614,688.087,833.464,688.195,834.651,687.098z"/>
	<path fill="#252233" d="M855.035,714.048c2.195-1.315,3.138-5.078,1.823-7.273c-1.287-2.166-4.824-2.094-7.027-0.761
		c-2.176,1.288-2.43,4.253-1.124,6.429C850.003,714.646,852.85,715.353,855.035,714.048z"/>
	<path fill="#252233" d="M849.123,702.368c1.124,0.744,2.639,0.445,3.373-0.707c0.708-1.124,0.318-3.12-0.826-3.826
		c-1.133-0.744-2.784,0.099-3.509,1.233C847.455,700.2,847.999,701.625,849.123,702.368z"/>
	<path fill="#252233" d="M864.276,712.914c-1.814-0.145-3.156,1.478-3.301,3.246c-0.154,1.804,1.188,3.373,2.974,3.509
		c1.804,0.154,3.863-1.604,4.026-3.418C868.12,714.482,866.062,713.059,864.276,712.914z"/>
	<path fill="#252233" d="M844.353,720.921c1.506-0.98,2.123-3.645,1.17-5.151c-0.952-1.568-3.446-1.433-4.987-0.472
		c-1.514,0.953-1.659,3.029-0.689,4.58C840.808,721.401,842.831,721.872,844.353,720.921z"/>
	<path fill="#252233" d="M853.204,721.383c-1.569,0.879-2.14,2.856-1.269,4.434c0.87,1.587,3.518,2.331,5.077,1.461
		c1.56-0.862,1.596-3.364,0.708-4.924C856.858,720.767,854.782,720.504,853.204,721.383z"/>
	<path fill="#252233" d="M831.051,714.202c2.521-0.327,3.845-3.592,3.501-6.121c-0.336-2.539-2.938-3.944-5.477-3.591
		c-2.52,0.344-4.316,2.647-3.962,5.168C825.411,712.189,828.522,714.546,831.051,714.202z"/>
	<path fill="#252233" d="M863.605,696.356c2.185-1.333,3.119-5.06,1.823-7.263c-1.324-2.195-4.852-2.095-7.073-0.799
		c-2.167,1.324-2.412,4.271-1.098,6.465C858.572,696.964,861.411,697.662,863.605,696.356z"/>
	<path fill="#252233" d="M869.753,699.576c1.098,0.707,2.62,0.39,3.346-0.734c0.734-1.116,0.345-3.111-0.788-3.864
		c-1.124-0.698-2.802,0.146-3.518,1.27C868.057,697.38,868.609,698.832,869.753,699.576z"/>
	<path fill="#252233" d="M854.537,685.457c1.541-0.926,2.186-3.564,1.279-5.124c-0.952-1.532-3.427-1.469-4.987-0.544
		c-1.541,0.925-1.705,3.001-0.78,4.552C850.973,685.901,852.978,686.39,854.537,685.457z"/>
	<path fill="#252233" d="M845.007,695.567c2.176-1.305,3.137-5.078,1.813-7.272c-1.306-2.185-4.842-2.095-7.019-0.788
		c-2.203,1.315-2.449,4.28-1.151,6.464C839.983,696.147,842.812,696.873,845.007,695.567z"/>
	<path fill="#252233" d="M862.471,701.606c-1.541,0.898-1.714,3.01-0.78,4.552c0.916,1.56,2.947,2.059,4.471,1.124
		c1.559-0.933,2.203-3.591,1.26-5.123C866.524,700.609,864.012,700.663,862.471,701.606z"/>
	<path fill="#252233" d="M869.299,709.64c-0.734,1.143-0.173,2.593,0.952,3.32c1.097,0.743,2.62,0.426,3.373-0.726
		c0.725-1.087,0.29-3.092-0.835-3.835C871.684,707.672,870.015,708.534,869.299,709.64z"/>
</g>
</svg>
